<svg width="100" height="101" viewBox="0 0 100 101" fill="none" xmlns="http://www.w3.org/2000/svg">
<mask id="mask0_595_22" style="mask-type:luminance" maskUnits="userSpaceOnUse" x="0" y="0" width="100" height="101">
<path d="M0 49.8792L48.9179 100.993L99.5081 51.5337L50.5902 0.420235L0 49.8792Z" fill="white"/>
</mask>
<g mask="url(#mask0_595_22)">
<path fill-rule="evenodd" clip-rule="evenodd" d="M55.0153 20.6623C55.0153 20.6623 57.6764 20.8958 60.2844 21.6307C61.2263 21.896 63.3311 22.7728 65.2739 23.9478C68.8444 26.107 72.3805 29.1212 70.7597 30.1166C68.843 31.2938 66.3991 26.7171 63.617 24.9664C60.835 23.2159 55.5323 21.5498 55.0153 20.6623ZM48.4868 22.052C51.8585 19.935 61.5154 24.5469 64.1373 27.4183C65.2857 28.6759 66.5349 30.5305 65.2892 30.5878C64.0435 30.6451 63.3564 29.4596 61.3301 27.3764C59.3039 25.2931 55.2215 23.7694 48.4868 22.052Z" fill="#FF91B2"/>
<path fill-rule="evenodd" clip-rule="evenodd" d="M46.0345 23.8752C44.6826 20.9589 51.668 19.0645 54.8767 19.2365C58.0854 19.4086 63.875 21.2951 66.772 23.3393C69.6691 25.3835 72.7941 26.7403 73.1653 26.0293C75.1917 22.1907 61.4598 16.6323 54.1822 15.6197C46.9045 14.6071 37.5118 15.6641 27.0439 23.808C16.5761 31.952 9.22469 51.4471 20.3165 69.5131C31.4083 87.5791 48.3141 90.3248 58.1052 87.7185C67.8964 85.1123 68.4103 76.8022 68.1047 74.4012C67.7991 72.0005 66.7552 72.7022 66.7552 72.7022C66.7552 72.7022 67.8541 78.1293 62.6506 83.1007C57.4471 88.0719 48.5627 85.8438 43.0545 81.3601C37.5463 76.8764 34.6633 67.3881 36.8329 63.5256C30.2997 62.3657 24.33 56.3595 23.6891 50.8325C23.0482 45.3055 22.285 35.7188 30.7544 31.0377C36.4762 27.8754 41.1077 27.8883 44.7316 28.8174C46.2469 29.2264 47.5702 29.7858 48.7652 30.5333C49.9622 31.2822 51.0391 32.2242 52.0595 33.3967C53.5081 35.0606 55.0271 37.7385 55.858 39.7977C56.4968 41.3805 56.7783 42.9796 56.4262 44.4353C55.3565 48.8571 56.5981 49.3921 57.4127 49.7431C57.4623 49.7644 57.4504 49.6163 57.4714 49.6572L57.4794 49.6834C57.5529 49.9068 57.5427 50.9377 57.2877 52.3423C56.7163 55.4909 56.5649 56.2386 57.0528 55.5394C57.3728 55.0813 58.2417 53.972 58.4893 52.6076C58.7829 50.9911 58.7513 49.6733 58.639 49.3312L58.6145 49.2681C58.4616 48.8703 58.1851 48.7506 57.8571 48.6093C57.4359 48.4278 56.7936 48.1508 57.611 44.7717C58.0318 43.032 57.7172 41.1746 56.9872 39.3656C56.0972 37.1598 54.4925 34.3566 52.9611 32.5975C52.0326 31.5305 51.0575 30.6378 49.9938 29.8946C53.337 29.205 58.1601 32.2954 60.4576 31.6022C64.4971 30.3833 55.8083 27.1537 53.8861 26.8413C50.8535 26.3486 46.9874 25.9303 46.0345 23.8752Z" fill="#FF91B2"/>
<path fill-rule="evenodd" clip-rule="evenodd" d="M41.606 32.0315C41.606 32.0315 43.6012 31.2691 45.956 32.6184C51.1321 35.5839 49.5301 42.3484 44.232 41.9454C39.9347 41.6185 38.8616 34.8884 43.5875 34.6223C44.1246 34.4791 44.9351 35.5369 43.2031 35.637C42.8489 35.6576 42.5145 36.0258 42.2994 36.2247C41.358 37.0948 41.7658 39.1555 43.1399 40.0238C44.9776 41.1852 47.7371 39.8834 47.6324 37.5765C47.5277 35.2697 46.4064 33.2017 41.606 32.0315Z" fill="#FF91B2"/>
<path fill-rule="evenodd" clip-rule="evenodd" d="M33.7548 50.1101C34.3721 50.7838 38.2011 53.4555 40.1559 49.6575C40.9913 52.2365 36.3011 55.8641 33.7548 50.1101Z" fill="#FF91B2"/>
<path fill-rule="evenodd" clip-rule="evenodd" d="M54.6752 46.6696C54.3049 47.4757 51.5158 51.0351 48.4068 47.9164C48.4499 50.6016 54.119 52.8397 54.6752 46.6696Z" fill="#FF91B2"/>
<path fill-rule="evenodd" clip-rule="evenodd" d="M45.8408 54.1951C46.8274 54.0284 47.518 53.3501 47.6188 53.8526C47.7196 54.3553 47.1626 55.3933 46.1761 55.5601C45.1896 55.7268 44.1475 54.9589 44.0468 54.4565C43.9459 53.9538 44.8544 54.3618 45.8408 54.1951Z" fill="#FF91B2"/>
<path fill-rule="evenodd" clip-rule="evenodd" d="M50.6183 55.7859C49.3738 56.2313 47.8918 58.1608 48.8173 59.7284C49.7685 61.3386 50.0947 61.1644 50.5011 63.9598C46.5699 60.3724 43.2316 59.7176 40.2537 60.249C38.4299 60.5743 36.8773 62.1585 35.9477 63.338C36.2415 63.41 36.5368 63.4726 36.8335 63.5253C36.6649 63.8253 36.5269 64.1595 36.4182 64.5224C38.6401 62.4396 41.1044 61.561 43.2334 61.739C46.7694 62.0345 50.28 65.0809 51.7533 66.9453C52.9513 64.265 51.5144 61.896 50.7377 60.3332C49.9611 58.7702 50.7882 56.6848 53.1381 57.2899C55.488 57.8949 55.8068 59.7894 57.588 62.46C57.5814 59.1992 56.5451 57.5131 55.0269 56.6038C53.605 55.752 51.9881 55.2959 50.6183 55.7859Z" fill="#FF91B2"/>
<path d="M69.2525 68.3935C70.2993 67.5624 71.9727 66.8511 73.781 68.5142C73.8572 68.5832 73.938 68.6632 74.0222 68.7511C75.0605 69.836 75.5226 71.2532 75.3325 72.8385C75.1701 74.1895 73.5669 77.6303 70.8361 79.0367C70.123 78.7164 71.2497 77.8235 71.5143 77.5273C72.8595 76.0201 73.5813 74.5164 73.7443 73.159C73.9069 71.8033 73.5118 70.5915 72.624 69.6638C72.5651 69.6022 72.4957 69.5347 72.4163 69.4615C71.0766 68.2274 69.9867 69.2086 69.6251 69.62C69.9402 70.7898 69.8511 71.5402 68.7455 72.9552C68.5469 73.0273 67.5213 66.978 65.2382 64.8841C64.6827 64.3743 64.1004 64.0389 63.5112 63.8591C62.9652 63.6923 62.4177 63.6608 61.8872 63.7488C60.8045 63.9279 59.7055 64.6255 58.7498 65.7007C57.2701 67.3654 57.2698 69.4063 57.7051 71.1308C57.8253 71.6064 58.7653 76.5791 57.8804 75.6044C57.8685 75.5875 53.6722 69.638 57.5291 65.2989C58.8453 63.8184 60.4447 62.8434 62.1036 62.5691C62.9196 62.434 63.7308 62.4733 64.5075 62.7104C65.2415 62.9343 65.9495 63.3363 66.6033 63.9362C67.6341 64.8818 68.5519 66.3388 69.2525 68.3935Z" fill="#FF91B2"/>
</g>
</svg>
