<svg class="mx-auto mb-2 w-5 h-5 text-gray-400 group-hover:text-gray-500 light:text-gray-400 light:group-hover:text-gray-400" xmlns="http://www.w3.org/2000/svg" enable-background="new 0 0 24 24" fill="currentColor" viewBox="0 0 18 20" id="add-link"><g><path d="M15.0518,15.458h-0.583v-0.5c0-0.5527-0.4473-1-1-1s-1,0.4473-1,1v0.5h-0.5205c-0.5527,0-1,0.4473-1,1s0.4473,1,1,1
			h0.5205v0.584c0,0.5527,0.4473,1,1,1s1-0.4473,1-1v-0.584h0.583c0.5527,0,1-0.4473,1-1S15.6045,15.458,15.0518,15.458z"></path><path d="M4.4404,19.5518c0.6396,0.3584,1.3789,0.5479,2.1396,0.5479c0.8059,0,1.6193-0.2122,2.3334-0.5906
			c0.1666,0.2681,0.3605,0.5188,0.5748,0.7313c0.1104,0.1221,0.2197,0.2324,0.3232,0.3252
			c0.0566,0.0586,0.1299,0.1289,0.2285,0.1953C11.0029,21.5605,12.2275,22,13.5,22c1.3379,0,2.6172-0.4795,3.5898-1.3398
			C18.3037,19.623,19,18.1064,19,16.5c0-0.6188-0.1084-1.2333-0.3107-1.8114c0.9092-0.8845,1.7717-1.8353,2.5412-2.8702
			c0.6768-0.9053,1.0498-1.9922,1.0498-3.0586c0-0.751-0.1895-1.4873-0.5449-2.123c-0.5078-0.9189-1.2607-1.6758-2.1758-2.1885
			c-1.54-0.8623-3.665-0.6504-5.1836,0.4971c-1.9072,1.4062-3.5928,3.0889-5.0088,4.998c-0.6592,0.8877-1.0215,1.9199-1.0469,3.0068
			c0,0.4704,0.0594,0.8962,0.1807,1.3C8.1853,14.9504,8,15.7106,8,16.5c0,0.386,0.0553,0.7626,0.1391,1.1406
			c-0.8739,0.5222-1.9457,0.6008-2.7211,0.1671c-0.5908-0.3311-1.0762-0.8193-1.4053-1.415
			c-0.1943-0.3486-0.293-0.7363-0.293-1.1523c0-0.6377,0.2314-1.2988,0.6543-1.8643c1.2939-1.7461,2.8359-3.2881,4.582-4.582
			c0.4434-0.3291,0.5361-0.9561,0.208-1.3994C8.834,6.9502,8.207,6.8594,7.7646,7.1865c-1.9043,1.4121-3.5859,3.0938-4.9951,4.9951
			c-0.6768,0.9053-1.0498,1.9922-1.0498,3.0586c0,0.751,0.1895,1.4873,0.5449,2.123C2.7725,18.2822,3.5254,19.0391,4.4404,19.5518z
			 M15.7783,19.1514c-1.2197,1.0762-3.2588,1.1016-4.498,0.0391c-0.0244-0.0205-0.0498-0.041-0.0762-0.0596
			c-0.002-0.002-0.0049-0.0039-0.0078-0.0068c-0.084-0.0771-0.1543-0.1465-0.2588-0.2607c-0.1514-0.1523-0.2646-0.2949-0.3857-0.498
			c-0.1416-0.2119-0.2451-0.4209-0.3096-0.6211c-0.0156-0.0498-0.0361-0.0977-0.0596-0.1445C10.0615,17.2656,10,16.8955,10,16.5
			c0-0.8496,0.3018-1.6582,0.8574-2.2881C11.04,14,11.2539,13.8076,11.5,13.6348c0.7939-0.5654,1.7285-0.7998,2.8027-0.5342
			c0.1016,0.0205,0.1963,0.0479,0.3291,0.0947c0.2617,0.0811,0.5156,0.2012,0.7324,0.3467v-0.001
			c0.0029,0.002,0.0059,0.0039,0.0088,0.0059c0.0039,0.0029,0.0088,0.0068,0.0127,0.0098c0.0244,0.0186,0.0498,0.0361,0.0762,0.0518
			c0.1914,0.1191,0.3838,0.2832,0.5957,0.5146c0.0098,0.0117,0.0361,0.04,0.0605,0.0664l0.0928,0.1094
			c0.1416,0.1709,0.2822,0.3828,0.4062,0.6123c0.0039,0.0078,0.0078,0.0156,0.0117,0.0234C16.8711,15.4111,17,15.9531,17,16.5
			C17,17.5215,16.5596,18.4834,15.7783,19.1514z M15.5723,6.5479c0.915-0.6924,2.1455-0.8389,3.0098-0.3555
			c0.5908,0.3311,1.0762,0.8193,1.4053,1.415c0.1943,0.3486,0.293,0.7363,0.293,1.1523c0,0.6377-0.2314,1.2988-0.6533,1.8633
			c-0.6063,0.8156-1.2793,1.5656-1.9794,2.2797l-0.002-0.0024c-0.0273-0.0352-0.0342-0.0449-0.0664-0.0762
			c-0.0029-0.0029-0.0703-0.0771-0.0732-0.0801c-0.2998-0.3281-0.6221-0.6016-0.9561-0.8135
			c-0.002-0.002-0.0049-0.0039-0.0078-0.0059c-0.0186-0.0137-0.0371-0.0273-0.0566-0.04c-0.0039-0.002-0.0068-0.0039-0.0098-0.0068
			c-0.2604-0.1734-0.548-0.3129-0.8356-0.4315c0.0577-0.6035,0.0112-1.2138-0.1653-1.7833
			c-0.1631-0.5264-0.7168-0.8193-1.252-0.6582c-0.5273,0.1641-0.8223,0.7236-0.6582,1.252
			c0.0745,0.2397,0.1099,0.4938,0.1093,0.7502c-1.0778-0.033-2.1827,0.2666-3.1024,0.8522c0.1053-0.2527,0.235-0.4984,0.4023-0.7236
			C12.2715,9.3848,13.8154,7.8438,15.5723,6.5479z"></path></g></svg>
