<svg width="60" height="55" viewBox="0 0 60 55" fill="none" xmlns="http://www.w3.org/2000/svg">
<g filter="url(#filter0_dd_347_1215)">
<path d="M11.8128 18.2025C13.0904 12.0427 17.0217 8.61188 23.1538 7.57545C27.6868 6.80946 32.2216 6.79976 36.747 7.59696C43.0609 8.70914 46.8565 12.34 48.0657 18.593C48.9999 23.4255 49.0146 28.3095 48.051 33.1375C46.7584 39.2546 42.7257 43.0306 36.6163 44.0632C32.0832 44.8291 27.5485 44.8388 23.023 44.0417C16.7092 42.9295 12.8967 39.1173 11.6876 32.8644C10.7057 28 10.8002 23.0851 11.8128 18.2025V18.2025Z" fill="black"/>
</g>
<path d="M11.8128 18.2025C13.0904 12.0427 17.0217 8.61188 23.1538 7.57545C27.6868 6.80946 32.2216 6.79976 36.747 7.59696C43.0609 8.70914 46.8565 12.34 48.0657 18.593C48.9999 23.4255 49.0146 28.3095 48.051 33.1375C46.7584 39.2546 42.7257 43.0306 36.6163 44.0632C32.0832 44.8291 27.5485 44.8388 23.023 44.0417C16.7092 42.9295 12.8967 39.1173 11.6876 32.8644C10.7057 28 10.8002 23.0851 11.8128 18.2025V18.2025Z" fill="#FF91B2"/>
<path fill-rule="evenodd" clip-rule="evenodd" d="M24.37 15.1822H25.7618V18.0923H19.0137V16.7005H24.37V15.1822ZM37.191 35.1519C38.3939 35.1519 39.3687 34.1768 39.3687 32.9741V20.5806H40.7605V33.2723C40.7605 35.0791 39.2959 36.5437 37.4892 36.5437H22.4116C20.6049 36.5437 19.1402 35.079 19.1402 33.2723V20.5806H20.532V32.9741C20.532 34.1768 21.5071 35.1519 22.7098 35.1519H37.191ZM37.3038 18.0923V16.7005H40.7605V18.0923H37.3038ZM35.4183 18.0923H27.7019V16.7005H34.0265V15.1822H35.4183V18.0923Z" fill="white"/>
<path fill-rule="evenodd" clip-rule="evenodd" d="M26.3954 22.5123C26.0917 22.8539 25.7375 23.1576 25.3073 23.4359C24.8771 23.689 24.4469 23.8661 24.042 23.98V25.0175C24.8897 24.7645 25.5983 24.3596 26.1676 23.7776V31.5463H27.2052V22.5123H26.3954ZM32.4434 22.3351C31.583 22.3351 30.8871 22.5755 30.3557 23.069C29.799 23.5625 29.47 24.2457 29.3941 25.1187H30.4189C30.4822 24.5114 30.6847 24.0433 31.0389 23.7143C31.3806 23.3853 31.8487 23.2335 32.456 23.2335C33.0381 23.2335 33.5062 23.3727 33.8352 23.6763C34.1388 23.9547 34.3033 24.3469 34.3033 24.853C34.3033 25.3591 34.1388 25.7514 33.8225 26.0297C33.5062 26.2954 33.0507 26.4346 32.4434 26.4346H31.7475V27.2444H32.4813C33.114 27.2444 33.5948 27.3836 33.949 27.6872C34.3033 27.9909 34.4805 28.4084 34.4805 28.9525C34.4805 29.4839 34.2907 29.9268 33.9364 30.281C33.5442 30.648 33.0254 30.8378 32.3801 30.8378C31.8107 30.8378 31.3426 30.6733 30.963 30.3696C30.5202 30.0027 30.2798 29.4586 30.2545 28.7501H29.2043C29.2802 29.7623 29.6345 30.5341 30.2798 31.0655C30.8238 31.4957 31.5197 31.7235 32.3801 31.7235C33.3164 31.7235 34.0756 31.4577 34.6576 30.9263C35.227 30.4076 35.518 29.737 35.518 28.9145C35.518 28.3831 35.3662 27.9403 35.0625 27.586C34.7841 27.2317 34.3792 26.9787 33.8478 26.8142C34.8347 26.4852 35.3282 25.802 35.3282 24.7898C35.3282 24.0306 35.0625 23.4359 34.5437 22.9931C34.0123 22.5502 33.3038 22.3351 32.4434 22.3351Z" fill="white"/>
<defs>
<filter id="filter0_dd_347_1215" x="0" y="0" width="59.7695" height="59.6386" filterUnits="userSpaceOnUse" color-interpolation-filters="sRGB">
<feFlood flood-opacity="0" result="BackgroundImageFix"/>
<feColorMatrix in="SourceAlpha" type="matrix" values="0 0 0 0 0 0 0 0 0 0 0 0 0 0 0 0 0 0 127 0" result="hardAlpha"/>
<feOffset dy="5"/>
<feGaussianBlur stdDeviation="4"/>
<feColorMatrix type="matrix" values="0 0 0 0 0 0 0 0 0 0 0 0 0 0 0 0 0 0 0.078125 0"/>
<feBlend mode="normal" in2="BackgroundImageFix" result="effect1_dropShadow_347_1215"/>
<feColorMatrix in="SourceAlpha" type="matrix" values="0 0 0 0 0 0 0 0 0 0 0 0 0 0 0 0 0 0 127 0" result="hardAlpha"/>
<feOffset dy="4"/>
<feGaussianBlur stdDeviation="5.5"/>
<feColorMatrix type="matrix" values="0 0 0 0 0 0 0 0 0 0 0 0 0 0 0 0 0 0 0.210824 0"/>
<feBlend mode="normal" in2="effect1_dropShadow_347_1215" result="effect2_dropShadow_347_1215"/>
<feBlend mode="normal" in="SourceGraphic" in2="effect2_dropShadow_347_1215" result="shape"/>
</filter>
</defs>
</svg>
