<svg xmlns="http://www.w3.org/2000/svg" data-name="Layer 2" viewBox="0 0 64 64" id="deposit"><path d="M28.71,32a2,2,0,0,0,2,2H31V30h-.29A2,2,0,0,0,28.71,32Z"></path><path d="M60,28H56.49a20.33,20.33,0,0,0-4.83-9.28l3.18-8.85a1,1,0,0,0-.5-1.23c-.28-.14-7.06-3.42-13.08-.17a11.58,11.58,0,0,0-4,3.56A.93.93,0,0,0,37,12H27a1.07,1.07,0,0,0-.25,0A20.34,20.34,0,0,0,9.9,22a2.69,2.69,0,0,1-.4,0,2.5,2.5,0,0,1,0-5,2.44,2.44,0,0,1,1,.2l.78-1.85a4.5,4.5,0,1,0-2.38,8.59A20.49,20.49,0,0,0,7,32.5a20.29,20.29,0,0,0,5.92,14.37l-1.53,3.75a4.51,4.51,0,0,0,2.47,5.86,4.41,4.41,0,0,0,1.7.34,4.46,4.46,0,0,0,1.75-.36A4.5,4.5,0,0,0,19.73,54l.9-2.23A20.5,20.5,0,0,0,26.75,53,1,1,0,0,0,27,53H37a1,1,0,0,0,.25,0,21,21,0,0,0,4.34-.64L42.27,54a4.5,4.5,0,0,0,2.42,2.45,4.44,4.44,0,0,0,3.45,0,4.51,4.51,0,0,0,2.47-5.86l-1-2.42A20,20,0,0,0,53.45,44H59a1,1,0,0,0,1-.93l1-14a1,1,0,0,0-.27-.75A1,1,0,0,0,60,28ZM33.29,34a4,4,0,0,1,0,8H33v2.43H31V42h-.29a4,4,0,0,1-4-4h2a2,2,0,0,0,2,2H31V36h-.29a4,4,0,0,1,0-8H31V25.57h2V28h.29a4,4,0,0,1,4,4h-2a2,2,0,0,0-2-2H33v4Zm5.4-14a21.35,21.35,0,0,0-14.35,0l-.68-1.88a23.65,23.65,0,0,1,15.65,0ZM48,29a2,2,0,1,1,2-2A2,2,0,0,1,48,29Z"></path><path d="M33,40h.29a2,2,0,0,0,0-4H33Z"></path></svg>
