<svg xmlns="http://www.w3.org/2000/svg" width="32" height="32" enable-background="new 0 0 32 32" viewBox="0 0 32 32" id="share">
  <path d="M12 4c-.553 0-1 .448-1 1s.447 1 1 1h6c.553 0 1-.448 1-1s-.447-1-1-1H12zM16 28c.553 0 1-.447 1-1s-.447-1-1-1h-2c-.553 0-1 .447-1 1s.447 1 1 1H16z"></path>
  <path d="M24,26c-0.553,0-1,0.447-1,1v1c0,0.552-0.448,1-1,1H8c-0.552,0-1-0.448-1-1V4c0-0.551,0.448-1,1-1h14c0.552,0,1,0.449,1,1
		v1c0,0.552,0.447,1,1,1s1-0.448,1-1V4c0-1.654-1.346-3-3-3H8C6.346,1,5,2.346,5,4v24c0,1.654,1.346,3,3,3h14c1.654,0,3-1.346,3-3
		v-1C25,26.447,24.553,26,24,26z"></path>
  <path d="M27,17c-1.365,0-2.57,0.689-3.292,1.736l-2.897-1.449C20.922,16.874,21,16.448,21,16s-0.078-0.874-0.189-1.287l2.897-1.449
		C24.431,14.311,25.635,15,27,15c2.206,0,4-1.794,4-4s-1.794-4-4-4s-4,1.794-4,4c0,0.125,0.025,0.242,0.037,0.363l-3.124,1.562
		C18.996,11.762,17.592,11,16,11c-2.757,0-5,2.243-5,5s2.243,5,5,5c1.592,0,2.996-0.762,3.913-1.926l3.124,1.563
		C23.025,20.758,23,20.876,23,21c0,2.206,1.794,4,4,4s4-1.794,4-4S29.206,17,27,17z M27,9c1.103,0,2,0.897,2,2s-0.897,2-2,2
		s-2-0.897-2-2S25.897,9,27,9z M16,19c-1.654,0-3-1.346-3-3s1.346-3,3-3s3,1.346,3,3S17.654,19,16,19z M27,23c-1.103,0-2-0.897-2-2
		s0.897-2,2-2s2,0.897,2,2S28.103,23,27,23z"></path>
</svg>
