<svg xmlns="http://www.w3.org/2000/svg" enable-background="new 0 0 960 960" viewBox="0 0 960 960" id="addtofavorite"><g display="none" fill="#000000" class="color000000 svgShape"><path fill="none" stroke="#000000" stroke-linecap="round" stroke-linejoin="round" stroke-miterlimit="10" stroke-width="15" d="M611.9,269.4c73.1,14.6,140.8,25.4,213.8,40c-31,177.2-43.9,252-74.9,429.3c-27.2-8.2-135.2-34.6-150-38
		c-28.3-6.4-140.2-38.2-140.2-38.2s51.3-140.5,62-168.1C558.8,402,582.2,341.9,611.9,269.4z" class="colorStroke000000 svgStroke"></path><path fill="none" stroke="#000000" stroke-linecap="round" stroke-linejoin="round" stroke-miterlimit="10" stroke-width="15" d="M825.8 309.4c20.9 1.6 34.3 2.4 50 4.5-6.9 213.7-3.8 241.7-16.5 410.2-23.2 4.4-68.6 10.5-108.5 14.6M614.2 271.4c3.4-24 8.6-50.9 28.9-64 17-11 38.9-8.5 58.9-5.7 20.3 2.9 40.6 5.7 60.8 8.6 18.6 2.6 44.9 7.9 58.2 21.1 10.5 10.5 8.7 23.8 9 38.6.3 14.8-.9 24.8-4.3 39.3" class="colorStroke000000 svgStroke"></path><path fill="none" stroke="#000000" stroke-linecap="round" stroke-linejoin="round" stroke-miterlimit="10" stroke-width="15" d="M629.2,221.5c19.9-26.7,25.6-28.9,45-37.8c15-6.9,56-0.4,72.4,1.3c41.7,4.4,52.5,9.4,92.6,21.6
		c37.9,11.5,42.8,34.8,41.5,57.9c-0.8,14.1-1.3,28.5-5,49.4" class="colorStroke000000 svgStroke"></path><path fill="none" stroke="#000000" stroke-linecap="round" stroke-linejoin="round" stroke-miterlimit="10" stroke-width="15" d="M710.3 202.9C710.3 202.9 710.3 202.9 710.3 202.9c-15.6 4-21.9 15.4-25.1 22.9-3.3 8-4.2 16.8-5.5 25.3-2.1 13.3-3.7 21.3-4.8 30M631.7 351.3c4.2 2.5 9.9.8 13.3-2.6 8-8 16.6-33.1-2.6-31.4C629.2 318.4 619.3 343.7 631.7 351.3zM686.8 346.8c-.4 3.4-.8 6.8-.2 10.1.6 3.3 2.4 6.6 5.4 8.2 5.3 2.9 12-.6 15.7-5.4 6-7.8 9.6-27.7-1-32C692.9 322 687.8 338.2 686.8 346.8zM753.4 345.5c-2.5 6.9-3.8 14.3-3.7 21.7 0 3.5.5 7.4 3 9.9 3.9 3.9 11 2.4 14.8-1.6 3.8-4.1 5.1-9.7 6.3-15.2 1.1-4.9 2.1-10 .6-14.8C770.7 333.8 757.3 335.1 753.4 345.5zM739.4 490c-4.4-2-9.9.4-12.9 4.2-7 8.9-13.3 33.4 5.9 32.9C747.3 526.6 752.6 496 739.4 490zM674.2 490c.4-3.3.8-6.8.2-10.1-.6-3.3-2.3-6.6-5.3-8.2-5.3-2.9-12 .6-15.7 5.3-6 7.7-9.8 27.6.8 32C668 514.7 673.2 498.5 674.2 490zM595 482.6c2.9-6.8 5.5-13 5.8-20.3.1-3.5-1.1-7.5-3.5-10.1-3.7-4.1-10.7-4-14.7-.2-4 3.8-5.6 9.4-7.1 14.8-1.3 4.8-2.7 9.9-1.4 14.7C577.2 493.4 590.6 492.8 595 482.6zM631.3 414.2c-.2 3.2.1 6.5 1.6 9.4s4.7 5.5 8.4 5.9c4 .5 7.8-1.5 10.2-4.1 2.4-2.7 3.5-6 4.6-9.2 2.6-7.7 5.5-23.4-8.4-25.7C635.2 388.4 631.7 407 631.3 414.2zM703.5 427.3c-.6 3.8-.5 7.9 1.5 11.5 2 3.6 6.4 6.5 11 6.5 3.3-.1 6.4-1.6 8.4-3.8s3.2-4.8 4.1-7.4c1.8-5.1 2.6-10.5 2.4-15.9-.2-6.3-5.6-17.4-15.2-13C708.1 408.6 704.5 420.6 703.5 427.3zM701.6 639.2c-4.4-2-9.9.4-12.9 4.2-7 8.9-13.3 33.4 5.9 32.9C709.6 675.9 714.9 645.3 701.6 639.2zM628.1 634.1c.4-3.3.8-6.8.2-10.1-.6-3.3-2.3-6.6-5.3-8.2-5.3-2.9-12 .6-15.7 5.3-6 7.7-9.8 27.6.8 32C621.9 658.8 627.1 642.6 628.1 634.1zM544.7 628.2c2.9-6.8 5.5-13 5.8-20.3.1-3.5-1.1-7.5-3.5-10.1-3.7-4.1-10.7-4-14.7-.2-4 3.8-5.6 9.4-7.1 14.8-1.3 4.8-2.7 9.9-1.4 14.7C526.8 638.9 540.3 638.4 544.7 628.2zM586.4 556.5c-.2 3.2.1 6.5 1.6 9.4s4.7 5.5 8.4 5.9c4 .5 7.8-1.5 10.2-4.1 2.4-2.7 3.5-6 4.6-9.2 2.6-7.7 5.5-23.4-8.4-25.7C590.3 530.7 586.8 549.3 586.4 556.5zM661.1 573.9c-.6 3.8-.5 7.9 1.5 11.5s6.4 6.5 11 6.5c3.3-.1 6.4-1.6 8.4-3.8 2-2.1 3.2-4.8 4.1-7.4 1.8-5.1 2.6-10.5 2.4-15.9-.2-6.3-5.6-17.4-15.2-13C665.7 555.2 662.1 567.2 661.1 573.9zM203 160.2c32.8 33.2 86.8 49.4 126.8 56.9 49.7 9.2 108.4 38.7 94.5 64.5s-50.8-2.7-68-6.6c-9.6-2.1-26.1.9-33.3 7.6-17.5 16.3-10.4 35.7-7.1 44.2 3.3 8.5 9.5 15.5 16 22 18.9 19 37.5 31 61.5 43 5.2 2.6 25.6 9.4 21.3 24.6-4.2 15.2-24.5 14.2-30.6 13.3-40.6-5.4-78.7-27.8-103.2-60.7 15.6 28.3 43.7 54.3 75.7 67 5.2 2.1 19.7 10 17.1 20.7-2.5 10.7-13.1 14.9-21.7 14.2-46.5-3.5-87.8-36.2-111.7-73.9 22 45.9 63.8 68 70.4 72.5 6.6 4.5 11.8 12.2 10.5 20.1-1.5 8.6-10.5 14.3-19.3 14.8-8.7.5-17.2-3-25.1-6.7-38.8-18.1-62.2-45.1-106.7-102-32.8-41.9-47-69.9-91.2-114.1" class="colorStroke000000 svgStroke"></path><path fill="none" stroke="#000000" stroke-linecap="round" stroke-linejoin="round" stroke-miterlimit="10" stroke-width="15" d="M496.5,329.4c-6,8.2-16,12.6-25.6,5.7c-5.5-3.7-7.6-10-7.3-16.6c-50-16.4-113.5-36.9-150.2-47.3
			c-15.6,34.5-19.8,68.7-32.6,104.4c75.4,23.1,161.3,53.5,236.7,76.6c6.2-24.9,17-99,19.7-109.3
			C537.2,342.9,520.9,337.4,496.5,329.4z" class="colorStroke000000 svgStroke"></path><path fill="none" stroke="#000000" stroke-linecap="round" stroke-linejoin="round" stroke-miterlimit="10" stroke-width="15" d="M389.5 352.6c4.8 4.1 11.5 6.3 17 3.3 12.8-6.9 8.1-26-4.1-30.9C387.9 319.2 377.4 342.3 389.5 352.6zM456.9 393.3c.8 7.3 6.7 13.8 13.9 15.1 16.7 3 22.9-17.2 12.7-28.1C473.3 369.4 455.3 378.8 456.9 393.3zM280.8 375.6c-6.8 33.5-12 94.8-10.6 129 .3 7.6 1.7 16.6 8.4 20.1 4 2.1 8.8 1.6 13.3 1 22.1-3 44-7.4 65.6-12.9-.4-4.3.7-8.8 3.3-12.2 5.2-6.8 15.1-9 23-5.8 3.9 1.6 7.2 4.3 9.7 7.8 42.5-13.4 83.8-30.8 123.9-50.2" class="colorStroke000000 svgStroke"></path><path fill="none" stroke="#000000" stroke-linecap="round" stroke-linejoin="round" stroke-miterlimit="10" stroke-width="15" d="M403.3 465.9c2.4 4.6 8.1 7.1 13.2 6 9-2 12.6-13.1 7.3-20.3-4.5-6.2-13.2-5.9-18.2-.5C402 455 400.8 461.1 403.3 465.9zM454.9 520c7.8 2.2 12.6 11.7 9.8 19.4-2.8 7.6-12.7 11.7-20 8.3M419.1 606.6c-9.5-4-21.8 3.6-22.5 13.8-.7 10.3 10.4 19.5 20.3 16.9M488.1 769.8c6.7 3.1 10.5 11.3 8.5 18.4-1.9 7.1-9.4 12.2-16.7 11.5M437.1 712.4c-7.7.7-14.1 8.1-13.7 15.8.4 7.7 7.4 14.5 15.1 14.5M327.3 700.5c-3.5-7.6-.4-17.6 6.7-21.9 7.2-4.3 17.5-2.3 22.5 4.3M531.9 553.2c5.6 4.8 14.7 4.5 20-.6 5.3-5.1 5.9-14.3 1.3-20M349.4 772.8c-3.3 6.9-1.1 16.1 5 20.8s15.5 4.4 21.3-.7M559.1 761.4c-2.9-7.7.9-17.4 8.2-21.1 7.4-3.7 17.4-.9 21.8 6.1" class="colorStroke000000 svgStroke"></path></g><g display="none" fill="#000000" class="color000000 svgShape"><path fill="none" stroke="#000000" stroke-linecap="round" stroke-linejoin="round" stroke-miterlimit="10" stroke-width="15" d="M852.3,671.3c-26.8-22.2-56.1-68.8-88.6-111.8c-10.4-13.8-19.6-28.6-31.9-40.7
				c-12.3-12.1-28.4-21.6-45.7-21.2c-17.2,0.4-34.7,13.2-36.2,30.4c-6.4-17.9-25.9-30.2-44.8-28.2c-18.9,2-35.4,18.1-37.9,37
				C557.3,525.8,480,425,452.8,393.5c-12.4-14.3-35.2-14.1-46.7-4.9c-9.6,7.7-19.7,24.4-5.2,49.2c45.3,77.6,129.1,210.2,155.7,240.2
				" class="colorStroke000000 svgStroke"></path><path fill="none" stroke="#000000" stroke-linecap="round" stroke-linejoin="round" stroke-miterlimit="10" stroke-width="15" d="M707.1 871.3c-51.2-62.5-114.8-60.7-172.7-104.9-45.8-35-92.3-104.9-32.8-166M111.4 289.8C99 228.4 118 158.8 167.9 120.9c37.4-28.4 89.7-36 133.7-19.4s78.2 56.9 87.5 102.9c14-81.4 110.9-137 188.3-108C645.3 121.9 684.4 199.7 679 272c-5.4 72.3-62.7 143.4-117.2 191.4-104.1 91.7-143.7 142-240.6 76.9C232.8 480.9 134 401.7 111.4 289.8z" class="colorStroke000000 svgStroke"></path></g><path fill="#222222" d="M857.1,665.5c-18.6-15.4-39.2-44-60.9-74.3c-8.5-11.9-17.4-24.2-26.4-36.2c-2.9-3.8-5.7-7.8-8.5-11.6
		c-7.3-10.2-14.8-20.7-24.1-29.9c-15.6-15.5-33.8-23.7-51.1-23.3c-15.6,0.4-29.9,8.7-37.6,20.5c-10.6-12.6-27.4-20-44.1-18.2
		c-17.3,1.8-32.7,13.4-40.2,28.9c-5.9-7.3-14-17.7-23.1-29.3c8.2-7.4,16.7-15,25.8-23c21.7-19.1,53-50,78.3-88
		c24.9-37.5,38.9-74,41.4-108.4c2.8-37.5-5.8-76.4-24.3-109.6c-19.4-34.8-48.6-60.9-82.3-73.6c-39-14.6-84.3-9.8-124.2,13.2
		c-31.5,18.1-55,44.7-66.9,75.2c-15.3-37.6-46.6-68.9-84.5-83.3c-46.2-17.5-101.5-9.5-140.9,20.4c-49.3,37.4-73.1,108.2-59.4,176.4
		c10.5,52.2,37.4,100.8,82.1,148.5c41.9,44.8,92,80.5,131,106.7c31.2,21,57.3,30.7,82.2,30.7c0,0,0,0,0,0c21,0,41.1-6.8,64.5-21.9
		c9.6,15.2,19.2,30.1,28.4,44.3c-19.1,21.4-27.8,45.2-25.9,70.8c1.4,19.3,8.8,38.9,21.9,58.2c13.8,20.3,30.3,35,41.7,43.7
		c24.5,18.7,50,29.4,74.6,39.7c34.9,14.7,67.9,28.5,96.9,63.9c1.5,1.8,3.6,2.8,5.8,2.8c1.7,0,3.4-0.6,4.7-1.7
		c3.2-2.6,3.7-7.3,1.1-10.6c-31.3-38.3-67.6-53.5-102.7-68.3c-23.7-10-48.3-20.3-71.3-37.8c-39.9-30.5-56-67-57.8-91.1
		c-1.5-20.2,5.1-39.3,19.5-56.7c21.4,32.4,39.8,58.7,50.2,70.4c1.5,1.7,3.5,2.5,5.6,2.5c1.8,0,3.5-0.6,5-1.9
		c3.1-2.7,3.4-7.5,0.6-10.6c-10.8-12.2-137.5-209.4-154.8-239c-4.4-7.5-12.9-26.5,3.4-39.5c8.8-7.1,27-6.9,36.4,3.9
		c15.6,18,48.2,59.6,74.4,93c19.9,25.4,35.7,45.5,40.1,50.3c2,2.2,5,3,7.8,2.1c2.8-0.9,4.8-3.3,5.2-6.2c2-15.4,15.8-28.8,31.3-30.5
		c15.5-1.7,31.7,8.5,37,23.2c1.2,3.3,4.5,5.4,8,4.9c3.5-0.5,6.2-3.3,6.5-6.8c0.9-11,12.8-23.1,28.9-23.5c17.9-0.4,32.9,11.7,40.2,19
		c8.4,8.3,15.2,17.8,22.4,27.9c2.8,3.9,5.7,8,8.7,12c9,11.9,17.7,24.1,26.2,35.9c22.3,31.1,43.4,60.5,63.6,77.2
		c3.2,2.6,7.9,2.2,10.6-1C860.7,672.9,860.3,668.2,857.1,665.5z M458.5,388.6c-15.1-17.4-42.6-17.5-57.1-5.8
		c-7.2,5.8-12.2,13.7-14.2,22.3c-2.7,11.4-0.2,23.7,7.2,36.5c16.5,28.2,38.7,64.8,61.4,101c-20.9,13.5-38.5,19.6-56.5,19.6
		c0,0,0,0,0,0c-21.7,0-45.2-9-73.8-28.2c-38.3-25.7-87.5-60.9-128.4-104.5c-42.8-45.7-68.4-91.9-78.4-141.3
		c-12.6-62.6,8.9-127.5,53.7-161.4c35.4-26.8,85-34,126.5-18.3c41.5,15.7,74,53.9,82.8,97.4c0.7,3.5,3.9,6.1,7.5,6
		c3.6-0.1,6.7-2.7,7.3-6.2c6.3-36.6,30.6-69.4,66.7-90.2c36.1-20.7,76.8-25.1,111.5-12.1c30.4,11.4,56.8,35.1,74.4,66.8
		c17,30.6,25,66.6,22.4,101.2c-2,27.5-17.3,100.6-114.6,186.3c-8.8,7.8-17.1,15.2-25.2,22.4C505.7,447,474,406.6,458.5,388.6z" display="none" class="color222222 svgShape"></path><g display="none" fill="#000000" class="color000000 svgShape"><path fill="#ff6699" d="M111.4,289.8C99,228.4,118,158.8,167.9,120.9c37.4-28.4,89.7-36,133.7-19.4s78.2,56.9,87.5,102.9
				c14-81.4,110.9-137,188.3-108C645.3,121.9,684.4,199.7,679,272c-5.4,72.3-62.7,143.4-117.2,191.4
				c-104.1,91.7-143.7,142-240.6,76.9C232.8,480.9,134,401.7,111.4,289.8z" class="colored644e svgShape"></path><path fill="#f6c1d3" d="M764.4 560.8c-10.3-13.7-19.4-28.4-31.6-40.4-12.2-12-28.2-21.4-45.4-21s-34.5 13.1-35.9 30.1c-6.4-17.8-25.7-29.9-44.5-27.9-18.8 2-35.2 18-37.6 36.7-9.9-10.9-86.6-111-113.6-142.2-12.3-14.2-35-14-46.4-4.8-9.5 7.6-19.5 24.2-5.2 48.8 26.5 45.5 66.4 110 100.1 161.4-59.1 60.7-12.9 130.1 32.5 164.8 57.5 43.9 120.6 42 171.4 104.1l144.1-198.5C825.7 649.7 796.6 603.5 764.4 560.8zM708.2 870.3c-50.8-62.1-114-60.2-171.4-104.1" class="colorf6cec1 svgShape"></path><path fill="#3f1a26" d="M708.2,877.8c-2.2,0-4.3-0.9-5.8-2.8c-28.8-35.2-61.5-48.9-96.1-63.4c-24.4-10.3-49.7-20.9-74-39.5
			c-3.3-2.5-3.9-7.2-1.4-10.5c2.5-3.3,7.2-3.9,10.5-1.4c22.8,17.4,47.2,27.7,70.7,37.6c34.8,14.6,70.8,29.7,101.9,67.8
			c2.6,3.2,2.2,7.9-1.1,10.6C711.5,877.2,709.8,877.8,708.2,877.8z" class="color1a1d3f svgShape"></path><path fill="#f6c1d3" d="M606.9,501.5c18.8-2,38.2,10.2,44.5,27.9c1.4-17.1,18.8-29.7,35.9-30.1s33.2,9,45.4,21
			c12.2,12,21.3,26.8,31.6,40.4" class="colorf6cec1 svgShape"></path><path fill="#3f1a26" d="M764.4,568.3c-2.3,0-4.5-1-6-3c-3-3.9-5.9-8-8.6-11.9c-7.2-10-14-19.5-22.3-27.7
			c-7.3-7.2-22.2-19.3-39.9-18.8c-16,0.4-27.7,12.3-28.6,23.3c-0.3,3.5-3,6.3-6.5,6.8c-3.5,0.5-6.8-1.6-8-4.9
			c-5.2-14.5-21.3-24.7-36.7-23c-4.1,0.4-7.8-2.5-8.3-6.7c-0.4-4.1,2.5-7.8,6.7-8.3c16.5-1.8,33.2,5.6,43.8,18.1
			c7.7-11.7,21.8-19.9,37.3-20.3c17.3-0.4,35.3,7.8,50.8,23.2c9.2,9.1,16.7,19.6,23.9,29.7c2.7,3.8,5.6,7.8,8.4,11.6
			c2.5,3.3,1.8,8-1.5,10.5C767.5,567.8,765.9,568.3,764.4,568.3z" class="color1a1d3f svgShape"></path><g fill="#000000" class="color000000 svgShape"><path fill="#f6c1d3" d="M558.7,678.5C532.3,648.7,449.1,517,404.1,440c-14.4-24.6-4.3-41.2,5.2-48.8c11.4-9.2,34.1-9.3,46.4,4.8" class="colorf6cec1 svgShape"></path><path fill="#3f1a26" d="M558.7,686c-2.1,0-4.1-0.9-5.6-2.5c-27.3-30.8-111.6-164.6-155.4-239.7c-7.4-12.7-9.8-24.9-7.2-36.3
			c2-8.6,7-16.5,14.2-22.2c14.4-11.6,41.8-11.6,56.8,5.8c2.7,3.1,2.4,7.9-0.8,10.6c-3.1,2.7-7.9,2.4-10.6-0.8
			c-9.3-10.7-27.3-10.9-36-3.9c-16.1,13-7.8,31.7-3.4,39.2c44,75.4,127.9,208.2,153.7,237.3c2.7,3.1,2.5,7.8-0.6,10.6
			C562.2,685.3,560.4,686,558.7,686z" class="color1a1d3f svgShape"></path></g></g><g fill="#000000" class="color000000 svgShape"><path fill="#e94d81" d="M466,544.9c-23.8-37.8-47.4-76.6-65.2-107c-14.5-24.8-4.4-41.5,5.2-49.2c11.5-9.3,34.4-9.4,46.7,4.9
			c16.4,18.9,50.9,63,78,97.5c9.7-8.7,20-18,31.1-27.7c54.4-48,111.8-119,117.2-191.4c5.4-72.3-33.8-150.1-101.7-175.5
			c-77.4-28.9-174.2,26.6-188.3,108c-9.3-46.1-43.5-86.3-87.5-102.9c-44-16.6-96.2-9-133.7,19.3C118,158.8,99,228.4,111.4,289.8
			C134,401.7,232.8,480.9,321.3,540.3C382.1,581.1,420.3,576.6,466,544.9z" class="colore9b44d svgShape"></path><path fill="#222222" d="M857.1,665.5c-18.6-15.4-39.2-44-60.9-74.3c-8.5-11.9-17.4-24.2-26.4-36.2c-2.9-3.8-5.7-7.8-8.5-11.6
		c-7.3-10.2-14.8-20.7-24.1-29.9c-15.6-15.5-33.8-23.7-51.1-23.3c-15.6,0.4-29.9,8.7-37.6,20.5c-10.6-12.6-27.4-20-44.1-18.2
		c-17.3,1.8-32.7,13.4-40.2,28.9c-7.5-9.3-18.6-23.5-30.8-39c-26.3-33.5-59.1-75.3-74.9-93.6c-15.1-17.4-42.6-17.5-57.1-5.8
		c-7.2,5.8-12.2,13.7-14.2,22.3c-2.7,11.4-0.2,23.7,7.2,36.5c25.3,43.4,64.1,106.4,97.8,158c-19.1,21.4-27.8,45.2-25.9,70.8
		c1.4,19.3,8.8,38.9,21.9,58.2c13.8,20.3,30.3,35,41.7,43.7c24.5,18.7,50,29.4,74.6,39.7c34.9,14.7,67.9,28.5,96.9,63.9
		c1.5,1.8,3.6,2.8,5.8,2.8c1.7,0,3.4-0.6,4.7-1.7c3.2-2.6,3.7-7.3,1.1-10.6c-31.3-38.3-67.6-53.5-102.7-68.3
		c-23.7-10-48.3-20.3-71.3-37.8c-39.9-30.5-56-67-57.8-91.1c-1.5-20.2,5.1-39.3,19.5-56.7c21.4,32.4,39.8,58.7,50.2,70.4
		c1.5,1.7,3.5,2.5,5.6,2.5c1.8,0,3.5-0.6,5-1.9c3.1-2.7,3.4-7.5,0.6-10.6c-10.8-12.2-30.8-41-53.8-76c-0.3-0.5-0.6-1-1-1.5
		c-34-51.9-74.1-117-100.1-161.5c-4.4-7.5-12.9-26.5,3.4-39.5c8.8-7.1,27-6.9,36.4,3.9c15.6,18,48.2,59.6,74.4,93
		c19.9,25.4,35.7,45.5,40.1,50.3c2,2.2,5,3,7.8,2.1c2.8-0.9,4.8-3.3,5.2-6.2c2-15.4,15.8-28.8,31.3-30.5c15.5-1.7,31.7,8.5,37,23.2
		c1.2,3.3,4.5,5.4,8,4.9c3.5-0.5,6.2-3.3,6.5-6.8c0.9-11,12.8-23.1,28.9-23.5c17.9-0.4,32.9,11.7,40.2,19
		c8.4,8.3,15.2,17.8,22.4,27.9c2.8,3.9,5.7,8,8.7,12c9,11.9,17.7,24.1,26.2,35.9c22.3,31.1,43.4,60.5,63.6,77.2
		c3.2,2.6,7.9,2.2,10.6-1C860.7,672.9,860.3,668.2,857.1,665.5z" class="color222222 svgShape"></path></g></svg>
