<svg width="1440" height="936" viewBox="0 0 1440 936" fill="none" xmlns="http://www.w3.org/2000/svg">
<g clip-path="url(#clip0_726_1333)">
<rect width="1440" height="936" fill="#FFF7F8"/>
<rect x="416" y="281" width="1" height="1" fill="#D9D9D9"/>
<circle cx="73.5" cy="122.5" r="27.5" stroke="#F3B9C0" stroke-opacity="0.3" stroke-width="10"/>
<circle cx="107" cy="832" r="36" stroke="#F3B9C0" stroke-opacity="0.3" stroke-width="10"/>
<circle cx="1399" r="36" stroke="#F3B9C0" stroke-opacity="0.3" stroke-width="10"/>
<circle cx="1159" cy="791" r="36" stroke="#F3B9C0" stroke-opacity="0.3" stroke-width="10"/>
<circle cx="240" cy="560" r="36" stroke="#F3B9C0" stroke-opacity="0.3" stroke-width="10"/>
<circle cx="921" cy="256" r="36" stroke="#F3B9C0" stroke-opacity="0.3" stroke-width="10"/>
<circle cx="1267" cy="148" r="36" stroke="white" stroke-opacity="0.51" stroke-width="10"/>
<circle cx="360.5" cy="817.5" r="26.5" fill="#F3B9C0" fill-opacity="0.45"/>
<circle cx="1240.5" cy="518.5" r="26.5" fill="white" fill-opacity="0.3"/>
<circle cx="1266.5" cy="431.5" r="26.5" fill="#F3B9C0" fill-opacity="0.3"/>
<circle cx="676.5" cy="465.5" r="26.5" fill="#FF91B2" fill-opacity="0.3"/>
<circle cx="717.5" cy="155.5" r="26.5" fill="#FF91B2" fill-opacity="0.3"/>
<circle cx="1357.5" cy="846.5" r="26.5" fill="#FF91B2" fill-opacity="0.3"/>
<circle cx="14.5" cy="435.5" r="26.5" fill="#FF91B2" fill-opacity="0.3"/>
<circle cx="424.5" cy="0.5" r="26.5" fill="#FF91B2" fill-opacity="0.3"/>
<circle cx="175" cy="309" r="36" stroke="white" stroke-opacity="0.51" stroke-width="10"/>
<circle cx="744" cy="697" r="36" stroke="white" stroke-opacity="0.51" stroke-width="10"/>
</g>
<defs>
<clipPath id="clip0_726_1333">
<rect width="1440" height="936" fill="white"/>
</clipPath>
</defs>
</svg>
