<svg xmlns="http://www.w3.org/2000/svg" viewBox="0 0 28 28" id="User">
  <circle cx="14" cy="14" r="14" fill="#0e0e0e" class="color3a6c87 svgShape"></circle>
  <path fill="#ffffff" d="M10.021 8C8.354 8 7 9.486 7 11.313v5.714C7 18.75 8.27 20 10.021 20h4.12a3.502 3.502 0 0 0 3.23 2.164c1.93 0 3.5-1.57 3.5-3.5 0-1.339-.765-2.492-1.873-3.08v-4.271C18.999 9.578 17.444 8 15.736 8h-5.715zm0 1h5.715C16.9 9 18 10.123 18 11.313v3.914a3.497 3.497 0 0 0-.627-.063 3.47 3.47 0 0 0-2.05.678 4.983 4.983 0 0 0-2.386-.67 2.49 2.49 0 0 0 2.418-2.483 2.492 2.492 0 0 0-4.982-.002 2.49 2.49 0 0 0 2.395 2.483 4.985 4.985 0 0 0-4.485 2.912A2.039 2.039 0 0 1 8 17.027v-5.715C8 10.2 8.772 9 10.021 9Zm2.842 2.197c.822 0 1.492.668 1.492 1.49 0 .823-.67 1.493-1.492 1.493s-1.49-.67-1.49-1.493c0-.821.668-1.49 1.49-1.49zm-.031 4.965c.614 0 1.21.141 1.754.406a3.462 3.462 0 0 0-.713 2.094c0 .115.022.224.033.336h-3.885V19c-.353 0-.669-.08-.947-.21a3.99 3.99 0 0 1 3.758-2.628zm4.541.002c1.379 0 2.5 1.121 2.5 2.5 0 1.378-1.121 2.5-2.5 2.5a2.503 2.503 0 0 1-2.5-2.5c0-1.378 1.121-2.5 2.5-2.5zm-.502 1.018v1.58l-.726-.51-.577.818 1.809 1.266 1.764-1.27-.584-.81-.686.49v-1.564h-1z" class="colorffffff svgShape"></path>
</svg>
